<svg width="247" height="238" viewBox="0 0 247 238" fill="none" xmlns="http://www.w3.org/2000/svg">
<g id="Group 2611796">
<g id="Group 2611722">
<rect id="Rectangle 4003" width="19.2868" height="10.7715" transform="matrix(0.884368 0.471857 -0.391761 0.91782 74.4922 93.5643)" fill="#016359"/>
<rect id="Rectangle 4004" width="19.4824" height="10.7083" transform="matrix(0.884368 0.471857 -0.391761 0.91782 32.8671 136.282)" fill="#016359"/>
<path id="Union" d="M145.503 8.77075C146.975 9.56964 147.712 9.9694 147.945 10.5911L149.267 14.5588C149.503 15.189 149.136 15.7886 148.394 16.9946L148.395 16.9868L144.983 22.5266L144.963 22.5593L144.909 22.6473C145.032 22.7143 145.161 22.784 145.295 22.857L152.24 26.6189C153.753 27.432 154.506 27.842 154.749 28.4732L156.072 32.4408C156.308 33.0711 155.94 33.6785 155.197 34.8923L151.787 40.4723L151.767 40.5054L151.704 40.6097C151.822 40.6742 151.946 40.7413 152.075 40.8115L152.091 40.8204L159.069 44.5999C160.589 45.4219 161.341 45.8319 161.584 46.4631L162.907 50.4307C163.15 51.062 162.782 51.6694 162.038 52.891L157.292 60.7012C156.561 61.9011 156.193 62.5064 155.494 62.627C154.788 62.7486 154.028 62.3377 152.509 61.5157L142.84 56.2824C141.321 55.4604 140.561 55.0494 140.319 54.4104L138.996 50.4428C138.761 49.8125 139.129 49.1973 139.88 47.9766L143.314 42.3683L143.353 42.3042L143.397 42.2308C143.274 42.1636 143.145 42.0936 143.01 42.0203L138.683 39.6759C137.18 38.863 136.432 38.4582 135.73 38.5792C135.036 38.7011 134.661 39.3084 133.92 40.506L133.92 40.5061L133.906 40.529L92.3765 107.636L92.2166 107.928C90.8966 110.337 89.5208 112.319 88.7712 112.587C88.1486 112.809 87.4681 112.698 86.9268 112.287C86.2752 111.791 85.9449 110.425 85.2845 107.694L85.2845 107.693L83.6098 100.766C83.3988 99.8935 83.2933 99.457 83.0813 99.292C82.9051 99.1548 82.6828 99.114 82.477 99.1812C82.2294 99.262 82.0062 99.6382 81.5597 100.391L79.4484 104.378L51.3174 150.11L51.0321 150.622C49.6245 153.145 48.2049 155.184 47.4356 155.439C46.7972 155.65 46.1059 155.515 45.5688 155.073C44.9216 154.54 44.6391 153.085 44.0739 150.175L42.7256 143.232C42.5489 142.322 42.4606 141.868 42.2527 141.691C42.0799 141.544 41.8565 141.493 41.6465 141.553C41.3937 141.626 41.1552 142.006 40.6782 142.767L40.6781 142.767L38.312 146.909L19.0739 178.184C18.2808 179.473 17.8842 180.118 17.3495 180.472C16.898 180.77 16.3804 180.922 15.8548 180.911C15.2325 180.898 14.6003 180.556 13.3358 179.872L3.50379 174.552C2.50278 174.01 2.00228 173.739 1.74583 173.316C1.64738 173.154 1.57279 172.976 1.52364 172.791L0.29437 169.097C0.252358 168.997 0.218207 168.895 0.192201 168.789C0.140223 168.579 0.120783 168.359 0.136147 168.139C0.171602 167.63 0.487096 167.121 1.11808 166.103L24.2349 128.797C25.1838 127.266 25.6583 126.5 26.1637 126.352C26.5096 126.251 26.8745 126.301 27.1862 126.485C27.5896 126.724 27.7912 126.843 27.7986 126.847L27.8175 126.858L37.1198 131.863L65.144 86.6374L65.144 86.6373C66.056 85.1657 66.5119 84.4298 67.0078 84.2786C67.3554 84.1727 67.7238 84.2195 68.0392 84.404L68.5774 84.719C68.5852 84.7235 68.5831 84.7225 68.5799 84.7208L68.5941 84.7284L77.9468 89.7617L116.5 27.8647L116.507 27.8532L116.588 27.7214C116.47 27.6569 116.346 27.5898 116.217 27.5197L111.915 25.1889C110.403 24.368 109.643 23.957 108.938 24.0787C108.236 24.1996 107.862 24.7995 107.114 25.9968L107.1 26.0186L103.626 31.6052C102.868 32.8248 102.486 33.4303 101.78 33.5519C101.075 33.6736 100.315 33.2626 98.7956 32.4407L89.1273 27.2073C87.6078 26.3854 86.848 25.9744 86.6122 25.3442L85.2894 21.3766C85.0536 20.7463 85.4365 20.1331 86.2004 18.9223L91.0384 11.1688C91.7944 9.96483 92.1763 9.35942 92.8819 9.23774C93.5875 9.11607 94.3472 9.52705 95.8598 10.348L102.825 14.1207C104.337 14.9417 105.097 15.3527 105.803 15.231C106.508 15.1093 106.882 14.5107 107.639 13.2989L111.102 7.75041C111.851 6.5454 112.225 5.9468 112.931 5.82513C113.634 5.70379 114.385 6.11117 115.889 6.92758L122.847 10.6963C124.359 11.5172 125.119 11.9282 125.818 11.8055C126.513 11.691 126.888 11.0881 127.632 9.89066L131.071 4.35022C131.812 3.15203 132.187 2.55344 132.885 2.43076C133.59 2.31691 134.343 2.71906 135.849 3.53902L145.503 8.77075Z" fill="url(#paint0_linear_734_6360)"/>
<path id="Vector" d="M148.021 10.3407C148.257 10.971 147.89 11.5706 147.148 12.7766L147.149 12.7687L143.737 18.3086L143.717 18.3413L143.717 18.3414C142.995 19.5266 142.629 20.1278 142.862 20.7523C143.106 21.3757 143.859 21.7857 145.371 22.6066L152.316 26.3685C153.83 27.1816 154.583 27.5916 154.825 28.2228C155.061 28.8531 154.693 29.4605 153.95 30.6743L150.541 36.2543L150.521 36.2874C149.791 37.487 149.425 38.0881 149.665 38.7136C149.907 39.3431 150.664 39.7536 152.168 40.57L159.145 44.3495C160.665 45.1715 161.418 45.5815 161.661 46.2127C161.903 46.8439 161.536 47.4514 160.792 48.673L156.045 56.4832C155.315 57.6831 154.946 58.2884 154.247 58.4089C153.542 58.5306 152.782 58.1196 151.262 57.2977L141.594 52.0644C140.075 51.2424 139.315 50.8314 139.073 50.1924C138.837 49.5621 139.206 48.9469 139.956 47.7262L143.391 42.1179L143.429 42.0538C144.14 40.8813 144.505 40.2786 144.266 39.6586C144.024 39.0291 143.268 38.6187 141.764 37.8023L137.437 35.4579C135.934 34.645 135.186 34.2402 134.484 34.3612C133.79 34.4831 133.414 35.0904 132.674 36.2881L132.66 36.311L91.0329 103.667C90.1327 105.131 89.6826 105.862 89.1891 106.016C88.7788 106.144 88.3381 106.058 87.9896 105.783C87.5705 105.452 87.3645 104.593 86.9526 102.875L85.3269 96.0933C84.915 94.3751 84.709 93.516 84.2899 93.1851L83.8661 92.957L77.9259 89.7603L116.577 27.6143L116.584 27.6028C117.33 26.3898 117.702 25.7853 117.466 25.157C117.231 24.5285 116.475 24.1181 114.971 23.3017L110.669 20.9709C109.157 20.1499 108.397 19.739 107.691 19.8606C106.99 19.9816 106.615 20.5814 105.867 21.7787L105.854 21.8006L102.379 27.3872C101.622 28.6068 101.24 29.2122 100.534 29.3339C99.8286 29.4556 99.0688 29.0446 97.5492 28.2226L87.881 22.9893C86.3615 22.1674 85.6017 21.7564 85.3659 21.1261C85.1301 20.4959 85.5129 19.8827 86.2768 18.6718L91.1148 10.9184C91.8708 9.71442 92.2528 9.109 92.9583 8.98733C93.6639 8.86565 94.4237 9.27664 95.9362 10.0976L102.901 13.8703C104.414 14.6913 105.174 15.1022 105.879 14.9806C106.585 14.8589 106.959 14.2603 107.716 13.0485L111.179 7.49999C111.928 6.29498 112.302 5.69639 113.007 5.57471C113.711 5.45338 114.461 5.86075 115.966 6.67716L122.923 10.4458C124.436 11.2668 125.195 11.6778 125.894 11.5551C126.589 11.4406 126.964 10.8377 127.708 9.64025L131.148 4.09981C131.889 2.90161 132.263 2.30302 132.961 2.18034C133.666 2.0665 134.42 2.46865 135.925 3.2886L145.58 8.52033C147.052 9.31922 147.788 9.71899 148.021 10.3407Z" fill="url(#paint1_linear_734_6360)"/>
<path id="Vector_2" d="M45.8832 145.264L44.4477 138.334C44.0743 136.532 43.8876 135.63 43.469 135.283L42.9851 135.023L37.1075 131.861L65.1317 86.6354L65.1317 86.6354C66.0436 85.1637 66.4996 84.4278 66.9955 84.2766C67.38 84.1594 67.7901 84.2292 68.1255 84.4656L68.1263 84.4661C68.1735 84.4994 68.1971 84.516 68.2063 84.522C68.2184 84.5299 68.218 84.5297 68.2305 84.537C68.24 84.5426 68.2519 84.549 68.2755 84.5617L68.2758 84.5618L77.9345 89.7597L83.8747 92.9564C84.0246 93.0051 84.168 93.0815 84.2984 93.1845L83.8747 92.9564C83.6242 92.8752 83.3556 92.8717 83.0989 92.9517C82.6054 93.1054 82.1553 93.8371 81.2551 95.3006L78.1134 100.408L49.9823 146.141C49.0458 147.663 48.5775 148.424 48.0745 148.575C47.6566 148.7 47.2098 148.604 46.8619 148.316C46.4433 147.968 46.2566 147.067 45.8832 145.264Z" fill="url(#paint2_linear_734_6360)"/>
<path id="Vector_3" d="M12.0179 175.902L2.18592 170.582C1.18492 170.041 0.684416 169.77 0.427959 169.347C0.212371 168.991 0.111204 168.564 0.141009 168.137C0.176464 167.629 0.491957 167.119 1.12294 166.101L24.2397 128.795C25.1886 127.264 25.6631 126.498 26.1685 126.351C26.5568 126.237 26.9689 126.314 27.303 126.557C27.3563 126.596 27.3829 126.616 27.3934 126.623C27.407 126.632 27.4067 126.631 27.4207 126.64C27.4316 126.646 27.4452 126.654 27.4723 126.668L37.1246 131.861L43.0022 135.023C43.1747 135.074 43.3392 135.161 43.4861 135.283L43.0022 135.023C42.7661 134.953 42.515 134.952 42.2735 135.024C41.7705 135.174 41.3022 135.936 40.3657 137.458L36.9941 142.939L17.756 174.215C16.9629 175.504 16.5664 176.149 16.0317 176.502C15.5801 176.801 15.0625 176.953 14.537 176.942C13.9146 176.929 13.2824 176.586 12.0179 175.902Z" fill="url(#paint3_linear_734_6360)"/>
</g>
<g id="Rectangle 4112" style="mix-blend-mode:overlay" filter="url(#filter0_f_734_6360)">
<path d="M154.393 69.0556L139.935 89.4893L125.073 76.1681L139.531 55.7344L154.393 69.0556Z" fill="black"/>
</g>
<g id="Rectangle 4113" style="mix-blend-mode:overlay" filter="url(#filter1_f_734_6360)">
<path d="M130.259 87.648L94.9198 121.38L83.6734 106.825L119.013 73.093L130.259 87.648Z" fill="black"/>
</g>
<g id="Group 2611723">
<path id="Union_2" d="M244.143 119.648L139.114 70.0781C137.09 69.1195 134.082 69.439 132.399 70.7923L90.0868 104.693C89.2946 105.329 88.9118 106.081 88.9221 106.805L88.9221 141.265C88.9343 142.124 89.5003 142.945 90.5928 143.489L195.099 195.616C197.305 196.712 200.517 196.399 202.271 194.914L245.073 158.619C245.787 158.014 246.128 157.308 246.122 156.615V122.154C246.112 121.193 245.432 120.257 244.143 119.648Z" fill="url(#paint4_linear_734_6360)"/>
<path id="Vector_4" d="M139.114 70.0801L244.143 119.65C246.36 120.697 246.778 122.714 245.073 124.161L202.271 160.456C200.517 161.94 197.305 162.254 195.099 161.157L90.5928 109.031C88.5798 108.028 88.3543 106.086 90.0868 104.695L132.399 70.7943C134.082 69.441 137.09 69.1215 139.114 70.0801Z" fill="url(#paint5_linear_734_6360)"/>
<path id="Vector_5" d="M142.328 77.8492C139.622 80.0295 134.782 80.5432 131.526 78.9895C131.081 78.7764 130.855 78.6699 130.707 78.6386C130.388 78.576 130.151 78.601 129.86 78.7263C129.728 78.7827 129.574 78.908 129.277 79.1461L102.513 100.648C102.205 100.893 102.051 101.018 101.996 101.112C101.87 101.325 101.886 101.475 102.062 101.657C102.145 101.738 102.365 101.851 102.81 102.07C106.05 103.668 106.446 106.776 103.679 109.006C103.3 109.313 103.107 109.47 103.047 109.564C102.92 109.777 102.937 109.927 103.113 110.109C103.195 110.19 103.377 110.284 103.734 110.46L189.062 152.831C189.453 153.025 189.645 153.119 189.799 153.151C190.14 153.226 190.388 153.201 190.696 153.063C190.833 153 191.031 152.837 191.416 152.512C194.21 150.156 199.314 149.655 202.834 151.39C203.318 151.628 203.56 151.747 203.72 151.785C204.061 151.86 204.314 151.835 204.616 151.697C204.754 151.635 204.913 151.503 205.221 151.24L232.271 128.359C232.573 128.102 232.727 127.971 232.782 127.871C232.903 127.651 232.87 127.488 232.666 127.3C232.573 127.213 232.331 127.1 231.847 126.868C228.321 125.183 227.689 121.956 230.417 119.657C230.791 119.337 230.983 119.181 231.033 119.081C231.154 118.861 231.121 118.705 230.923 118.517C230.829 118.429 230.637 118.341 230.246 118.153L144.561 77.5359C144.198 77.3668 144.017 77.2791 143.868 77.2477C143.549 77.1851 143.313 77.2101 143.021 77.3354C142.889 77.3918 142.702 77.5422 142.328 77.8429V77.8492Z" fill="url(#paint6_linear_734_6360)"/>
<path id="Vector_6" d="M138.264 75.9195C137.417 76.6024 135.91 76.759 134.892 76.2766C133.875 75.7942 133.743 74.8544 134.584 74.1777C135.426 73.5011 136.933 73.3382 137.95 73.8206C138.968 74.303 139.105 75.2428 138.264 75.9257V75.9195Z" fill="url(#paint7_linear_734_6360)"/>
<path id="Vector_7" d="M99.6322 107C98.7687 107.695 97.2451 107.852 96.2331 107.351C95.2211 106.85 95.1056 105.879 95.9691 105.183C96.8326 104.488 98.3562 104.331 99.3627 104.832C100.375 105.334 100.496 106.305 99.6267 107H99.6322Z" fill="url(#paint8_linear_734_6360)"/>
<path id="Vector_8" d="M238.816 123.634C237.964 124.355 236.374 124.517 235.269 123.991C234.163 123.465 233.965 122.456 234.818 121.736C235.67 121.015 237.254 120.859 238.36 121.379C239.465 121.899 239.669 122.914 238.816 123.634Z" fill="url(#paint9_linear_734_6360)"/>
<path id="Vector_9" d="M199.769 156.658C198.895 157.397 197.294 157.554 196.189 157.009C195.083 156.464 194.907 155.424 195.782 154.684C196.656 153.945 198.257 153.788 199.357 154.334C200.457 154.879 200.644 155.919 199.769 156.658Z" fill="url(#paint10_linear_734_6360)"/>
<path id="Vector_10" d="M153.439 114.774L149.93 113.064L153.516 110.126L157.025 111.83C159.582 113.07 161.98 113.634 164.213 113.515C166.479 113.409 168.52 112.607 170.335 111.116C173.932 108.152 173.107 105.414 167.893 102.914L164.378 101.229L167.97 98.2845L171.484 99.9635C174.443 101.379 176.522 102.871 177.716 104.437C178.915 106.009 179.3 107.551 178.882 109.061C178.513 110.571 177.54 111.98 175.95 113.29C173.937 114.95 171.523 116.002 168.707 116.428C165.951 116.855 163.179 116.667 160.402 115.871L160.253 115.996C161.122 116.679 161.628 117.45 161.76 118.302C161.953 119.148 161.92 120.1 161.661 121.159C161.403 122.218 160.908 123.715 160.165 125.663L160.138 125.751L159.263 128.05L153.329 125.131L154.214 122.894C155.061 120.877 155.584 119.423 155.782 118.534C156.007 117.625 155.936 116.905 155.573 116.366C155.237 115.846 154.522 115.313 153.428 114.781L153.439 114.774ZM167.975 98.2782L191.252 109.405L187.798 112.268L164.527 101.098L167.97 98.2782H167.975ZM160.446 104.449L183.705 115.664L180.796 118.076L157.542 106.824L160.446 104.449Z" fill="url(#paint11_linear_734_6360)"/>
</g>
<g id="Rectangle 4111" style="mix-blend-mode:overlay" opacity="0.3" filter="url(#filter2_f_734_6360)">
<path d="M200.862 179.168L197.837 196.084L86.4827 141.388L89.5078 124.472L200.862 179.168Z" fill="black"/>
</g>
<g id="Group 2611724">
<path id="Union_3" d="M194.098 185.231L89.9237 133.374C87.9162 132.372 84.9028 132.625 83.1973 133.942L40.3222 166.912C39.5194 167.53 39.124 168.273 39.1221 168.997L38.9532 179.021C38.951 179.88 39.5031 180.714 40.5862 181.281L144.195 235.683C146.382 236.827 149.599 236.584 151.378 235.138L194.783 199.786C195.507 199.195 195.86 198.497 195.865 197.804L196.034 187.78C196.041 186.818 195.376 185.867 194.098 185.231Z" fill="url(#paint12_linear_734_6360)"/>
<path id="Vector_11" d="M89.9237 133.374L194.098 185.231C196.297 186.326 196.681 188.352 194.952 189.762L151.547 225.114C149.768 226.56 146.551 226.803 144.364 225.659L40.7551 171.257C38.7593 170.211 38.5666 168.264 40.3222 166.912L83.1973 133.942C84.9028 132.625 87.9162 132.372 89.9237 133.374Z" fill="url(#paint13_linear_734_6360)"/>
<path id="Vector_12" d="M92.9977 141.213C90.2555 143.334 85.4076 143.742 82.1784 142.117C81.7366 141.894 81.5129 141.783 81.365 141.748C81.0471 141.679 80.8102 141.698 80.5166 141.817C80.3837 141.871 80.2276 141.993 79.9266 142.224L52.8062 163.138C52.4941 163.375 52.338 163.497 52.2814 163.59C52.1514 163.8 52.1653 163.951 52.3382 164.136C52.4194 164.219 52.6374 164.337 53.0791 164.566C56.2912 166.234 56.6347 169.35 53.8312 171.519C53.4466 171.818 53.2515 171.97 53.1894 172.063C53.0593 172.273 53.0733 172.424 53.2462 172.609C53.3273 172.693 53.5072 172.791 53.8617 172.974L138.46 217.203C138.847 217.405 139.038 217.503 139.191 217.538C139.531 217.621 139.779 217.601 140.089 217.47C140.228 217.41 140.428 217.252 140.819 216.935C143.652 214.64 148.764 214.251 152.254 216.063C152.734 216.312 152.974 216.436 153.132 216.477C153.472 216.559 153.726 216.54 154.03 216.409C154.169 216.349 154.331 216.221 154.643 215.965L182.073 193.68C182.379 193.429 182.536 193.301 182.592 193.202C182.717 192.986 182.687 192.822 182.486 192.63C182.394 192.54 182.154 192.422 181.674 192.18C178.178 190.417 177.6 187.178 180.366 184.938C180.745 184.627 180.94 184.475 180.992 184.376C181.116 184.159 181.086 184.002 180.891 183.809C180.799 183.72 180.608 183.628 180.221 183.431L95.2356 140.949C94.8755 140.771 94.6955 140.68 94.5476 140.645C94.2297 140.576 93.9928 140.596 93.6992 140.714C93.5663 140.768 93.3768 140.914 92.9978 141.207L92.9977 141.213Z" fill="url(#paint14_linear_734_6360)"/>
<path id="Vector_13" d="M88.9804 139.194C88.1221 139.858 86.6127 139.982 85.6035 139.478C84.5943 138.973 84.4781 138.03 85.3309 137.372C86.1836 136.714 87.6931 136.584 88.7023 137.089C89.7115 137.593 89.8332 138.536 88.9803 139.2L88.9804 139.194Z" fill="url(#paint15_linear_734_6360)"/>
<path id="Vector_14" d="M49.8242 169.426C48.9491 170.103 47.4232 170.226 46.4199 169.703C45.4165 169.18 45.3174 168.206 46.1924 167.53C47.0675 166.853 48.5934 166.73 49.5912 167.253C50.5946 167.776 50.6992 168.75 49.8187 169.426L49.8242 169.426Z" fill="url(#paint16_linear_734_6360)"/>
<path id="Vector_15" d="M188.702 189.097C187.838 189.799 186.246 189.927 185.149 189.376C184.053 188.826 183.872 187.813 184.736 187.111C185.601 186.41 187.187 186.288 188.284 186.832C189.38 187.376 189.567 188.395 188.702 189.097Z" fill="url(#paint17_linear_734_6360)"/>
<path id="Vector_16" d="M149.122 221.263C148.235 221.983 146.632 222.104 145.536 221.535C144.44 220.966 144.282 219.922 145.168 219.202C146.055 218.482 147.658 218.361 148.749 218.93C149.839 219.499 150.009 220.543 149.122 221.263Z" fill="url(#paint18_linear_734_6360)"/>
<path id="Vector_17" d="M103.488 178.375L100.009 176.589L103.644 173.729L107.123 175.51C109.659 176.806 112.048 177.422 114.282 177.352C116.55 177.295 118.603 176.538 120.443 175.087C124.089 172.202 123.311 169.447 118.14 166.834L114.654 165.072L118.295 162.206L121.78 163.962C124.715 165.442 126.768 166.978 127.935 168.57C129.107 170.169 129.466 171.718 129.023 173.219C128.629 174.72 127.632 176.109 126.021 177.383C123.98 178.999 121.548 179.999 118.726 180.363C115.964 180.729 113.195 180.48 110.432 179.624L110.281 179.746C111.138 180.448 111.631 181.229 111.749 182.084C111.927 182.934 111.878 183.885 111.602 184.938C111.326 185.991 110.805 187.478 110.03 189.409L110.001 189.497L109.088 191.776L103.204 188.728L104.127 186.511C105.008 184.512 105.555 183.07 105.768 182.185C106.008 181.282 105.949 180.56 105.595 180.013C105.268 179.486 104.563 178.938 103.477 178.382L103.488 178.375ZM118.3 162.2L141.385 173.834L137.883 176.621L114.805 164.943L118.295 162.2L118.3 162.2ZM110.668 168.205L133.735 179.927L130.785 182.275L107.725 170.516L110.668 168.205Z" fill="url(#paint19_linear_734_6360)"/>
</g>
</g>
<defs>
<filter id="filter0_f_734_6360" x="120.456" y="51.1179" width="38.5536" height="42.9881" filterUnits="userSpaceOnUse" color-interpolation-filters="sRGB">
<feFlood flood-opacity="0" result="BackgroundImageFix"/>
<feBlend mode="normal" in="SourceGraphic" in2="BackgroundImageFix" result="shape"/>
<feGaussianBlur stdDeviation="2.30826" result="effect1_foregroundBlur_734_6360"/>
</filter>
<filter id="filter1_f_734_6360" x="79.1642" y="68.5838" width="55.6043" height="57.3055" filterUnits="userSpaceOnUse" color-interpolation-filters="sRGB">
<feFlood flood-opacity="0" result="BackgroundImageFix"/>
<feBlend mode="normal" in="SourceGraphic" in2="BackgroundImageFix" result="shape"/>
<feGaussianBlur stdDeviation="2.25459" result="effect1_foregroundBlur_734_6360"/>
</filter>
<filter id="filter2_f_734_6360" x="81.3712" y="119.36" width="124.603" height="81.8354" filterUnits="userSpaceOnUse" color-interpolation-filters="sRGB">
<feFlood flood-opacity="0" result="BackgroundImageFix"/>
<feBlend mode="normal" in="SourceGraphic" in2="BackgroundImageFix" result="shape"/>
<feGaussianBlur stdDeviation="2.55572" result="effect1_foregroundBlur_734_6360"/>
</filter>
<linearGradient id="paint0_linear_734_6360" x1="82.7019" y1="1.58162" x2="70.3808" y2="137.339" gradientUnits="userSpaceOnUse">
<stop offset="0.555825" stop-color="#42C2B6"/>
<stop offset="1" stop-color="#30AA9E"/>
</linearGradient>
<linearGradient id="paint1_linear_734_6360" x1="126.626" y1="21.5237" x2="110.94" y2="106.089" gradientUnits="userSpaceOnUse">
<stop offset="0.605781" stop-color="#AFE6E1"/>
<stop offset="1" stop-color="#81D7D0"/>
</linearGradient>
<linearGradient id="paint2_linear_734_6360" x1="57.9733" y1="84.0661" x2="47.9923" y2="139.85" gradientUnits="userSpaceOnUse">
<stop offset="0.538566" stop-color="#AFE6E1"/>
<stop offset="1" stop-color="#81D7D0"/>
</linearGradient>
<linearGradient id="paint3_linear_734_6360" x1="22.5876" y1="126.234" x2="21.751" y2="177.061" gradientUnits="userSpaceOnUse">
<stop offset="0.580363" stop-color="#AFE6E1"/>
<stop offset="1" stop-color="#81D7D0"/>
</linearGradient>
<linearGradient id="paint4_linear_734_6360" x1="103.496" y1="122.468" x2="215.712" y2="190.227" gradientUnits="userSpaceOnUse">
<stop offset="0.329772" stop-color="#017469"/>
<stop offset="0.67482" stop-color="#016359"/>
</linearGradient>
<linearGradient id="paint5_linear_734_6360" x1="160.476" y1="90.0886" x2="164.112" y2="121.336" gradientUnits="userSpaceOnUse">
<stop offset="0.11" stop-color="#8DDDD5"/>
<stop offset="1" stop-color="#6AD3CA"/>
</linearGradient>
<linearGradient id="paint6_linear_734_6360" x1="153.914" y1="63.1453" x2="160.472" y2="134.727" gradientUnits="userSpaceOnUse">
<stop offset="0.16" stop-color="#01B1A1"/>
<stop offset="0.65" stop-color="#008A7A"/>
</linearGradient>
<linearGradient id="paint7_linear_734_6360" x1="124.947" y1="30.79" x2="130.324" y2="90.2808" gradientUnits="userSpaceOnUse">
<stop offset="0.16" stop-color="#01AC9C"/>
<stop offset="0.65" stop-color="#038F7F"/>
</linearGradient>
<linearGradient id="paint8_linear_734_6360" x1="86.2423" y1="60.48" x2="91.9104" y2="121.765" gradientUnits="userSpaceOnUse">
<stop offset="0.16" stop-color="#01AC9C"/>
<stop offset="0.65" stop-color="#038F7F"/>
</linearGradient>
<linearGradient id="paint9_linear_734_6360" x1="224.69" y1="75.2696" x2="230.529" y2="138.99" gradientUnits="userSpaceOnUse">
<stop offset="0.16" stop-color="#01AC9C"/>
<stop offset="0.65" stop-color="#038F7F"/>
</linearGradient>
<linearGradient id="paint10_linear_734_6360" x1="185.552" y1="106.832" x2="191.696" y2="172.439" gradientUnits="userSpaceOnUse">
<stop offset="0.16" stop-color="#01AC9C"/>
<stop offset="0.65" stop-color="#038F7F"/>
</linearGradient>
<linearGradient id="paint11_linear_734_6360" x1="170.591" y1="98.2782" x2="181.376" y2="128.877" gradientUnits="userSpaceOnUse">
<stop offset="0.361208" stop-color="#40CBBE"/>
<stop offset="0.803571" stop-color="#0DBEAE"/>
</linearGradient>
<linearGradient id="paint12_linear_734_6360" x1="90.7648" y1="189.238" x2="162.151" y2="235.348" gradientUnits="userSpaceOnUse">
<stop offset="0.329772" stop-color="#017469"/>
<stop offset="0.67482" stop-color="#016359"/>
</linearGradient>
<linearGradient id="paint13_linear_734_6360" x1="110.944" y1="153.846" x2="113.899" y2="185.182" gradientUnits="userSpaceOnUse">
<stop offset="0.11" stop-color="#8DDDD5"/>
<stop offset="1" stop-color="#6AD3CA"/>
</linearGradient>
<linearGradient id="paint14_linear_734_6360" x1="104.829" y1="126.765" x2="109.825" y2="198.502" gradientUnits="userSpaceOnUse">
<stop offset="0.16" stop-color="#01B1A1"/>
<stop offset="0.65" stop-color="#008A7A"/>
</linearGradient>
<linearGradient id="paint15_linear_734_6360" x1="76.4265" y1="93.782" x2="80.5051" y2="153.399" gradientUnits="userSpaceOnUse">
<stop offset="0.16" stop-color="#01AC9C"/>
<stop offset="0.65" stop-color="#038F7F"/>
</linearGradient>
<linearGradient id="paint16_linear_734_6360" x1="37.2204" y1="122.622" x2="41.5514" y2="184.041" gradientUnits="userSpaceOnUse">
<stop offset="0.16" stop-color="#01AC9C"/>
<stop offset="0.65" stop-color="#038F7F"/>
</linearGradient>
<linearGradient id="paint17_linear_734_6360" x1="175.393" y1="140.432" x2="179.841" y2="204.29" gradientUnits="userSpaceOnUse">
<stop offset="0.16" stop-color="#01AC9C"/>
<stop offset="0.65" stop-color="#038F7F"/>
</linearGradient>
<linearGradient id="paint18_linear_734_6360" x1="135.747" y1="171.135" x2="140.459" y2="236.888" gradientUnits="userSpaceOnUse">
<stop offset="0.16" stop-color="#01AC9C"/>
<stop offset="0.65" stop-color="#038F7F"/>
</linearGradient>
<linearGradient id="paint19_linear_734_6360" x1="120.915" y1="162.257" x2="131.06" y2="193.127" gradientUnits="userSpaceOnUse">
<stop offset="0.361208" stop-color="#40CBBE"/>
<stop offset="0.803571" stop-color="#0DBEAE"/>
</linearGradient>
</defs>
</svg>
