<svg width="20" height="20" viewBox="0 0 20 20" fill="none" xmlns="http://www.w3.org/2000/svg">
<g id="fi_8233964">
<g id="Group">
<path id="Vector" fill-rule="evenodd" clip-rule="evenodd" d="M2.83304 11.2918C3.04015 11.0157 3.4319 10.9597 3.70804 11.1668L9.99967 15.8855L16.2913 11.1668C16.5675 10.9597 16.9593 11.0157 17.1663 11.2918C17.3735 11.5679 17.3175 11.9597 17.0413 12.1668L10.3747 17.1668C10.1525 17.3334 9.84692 17.3334 9.62467 17.1668L2.95804 12.1668C2.6819 11.9597 2.62594 11.5679 2.83304 11.2918Z" fill="black"/>
<path id="Vector_2" fill-rule="evenodd" clip-rule="evenodd" d="M2.70801 4.16675C2.70801 3.82157 2.98783 3.54175 3.33301 3.54175H16.6663C17.0115 3.54175 17.2913 3.82157 17.2913 4.16675C17.2913 4.51192 17.0115 4.79175 16.6663 4.79175H3.33301C2.98783 4.79175 2.70801 4.51192 2.70801 4.16675Z" fill="black"/>
<path id="Vector_3" fill-rule="evenodd" clip-rule="evenodd" d="M2.70801 7.5C2.70801 7.15483 2.98783 6.875 3.33301 6.875H16.6663C17.0115 6.875 17.2913 7.15483 17.2913 7.5C17.2913 7.84517 17.0115 8.125 16.6663 8.125H3.33301C2.98783 8.125 2.70801 7.84517 2.70801 7.5Z" fill="black"/>
</g>
</g>
</svg>
