<svg width="102" height="31" viewBox="0 0 102 31" fill="none" xmlns="http://www.w3.org/2000/svg">
<g id="Money">
<path id="Vector" d="M87.4813 30.2671C86.4307 30.2671 85.503 30.1106 84.6983 29.7977V27.3835C85.0112 27.4953 85.4024 27.5847 85.8718 27.6518C86.3412 27.7412 86.7771 27.7859 87.1795 27.7859C87.9395 27.7859 88.5989 27.5847 89.1577 27.1823C89.7166 26.78 90.1525 26.1653 90.4654 25.3382L91.3707 23.427L83.3235 7.16504H86.4083L91.8401 18.1293C92.1531 18.8222 92.3766 19.4593 92.5107 20.0405C92.6448 20.6217 92.7119 21.0129 92.7119 21.214H92.9131L92.9466 20.9793C93.0807 20.1076 93.3713 19.1575 93.8184 18.1293L98.9149 7.16504H102L92.6448 26.6794C92.0637 27.9088 91.3484 28.8141 90.4989 29.3953C89.6495 29.9765 88.6436 30.2671 87.4813 30.2671Z" fill="black"/>
<path id="Vector_2" d="M65.5757 15.4809C65.5757 13.6703 65.9446 12.1168 66.6822 10.8203C67.4422 9.5238 68.4928 8.54026 69.834 7.86966C71.1752 7.19907 72.7176 6.86377 74.4611 6.86377C76.2494 6.86377 77.7806 7.22142 79.0547 7.93672C80.3512 8.62967 81.3236 9.60204 81.9718 10.8538C82.6424 12.0832 82.9777 13.4915 82.9777 15.0786C82.9777 15.4139 82.9554 15.8498 82.9107 16.3862H67.051L68.4928 15.2462C68.3364 17.3698 68.7722 18.9904 69.8005 20.108C70.8511 21.2257 72.3823 21.7845 74.3941 21.7845C75.8247 21.7845 77.0206 21.5051 77.9818 20.9463C78.943 20.3651 79.6247 19.5716 80.0271 18.5657H82.9107C82.3965 20.3316 81.413 21.6951 79.96 22.6563C78.5071 23.6175 76.6741 24.0981 74.4611 24.0981C71.7117 24.0981 69.5434 23.3381 67.9563 21.8181C66.3693 20.298 65.5757 18.1857 65.5757 15.4809ZM68.4258 15.3803L67.051 14.3744H80.2283C80.2283 12.765 79.7253 11.4909 78.7194 10.552C77.7135 9.59086 76.2941 9.11027 74.4611 9.11027C72.5164 9.11027 71.0076 9.6691 69.9346 10.7868C68.8617 11.9044 68.3587 13.4356 68.4258 15.3803Z" fill="black"/>
<path id="Vector_3" d="M46.6744 23.7963V7.16554H49.4574L48.9544 11.5915H49.1891C49.7256 10.2503 50.5974 9.13262 51.8044 8.23849C53.0339 7.32201 54.498 6.86377 56.1968 6.86377C58.0745 6.86377 59.6057 7.46731 60.7904 8.67438C61.9751 9.8591 62.5675 11.5803 62.5675 13.838V23.7963H59.7845V14.3744C59.7845 12.7874 59.3822 11.5691 58.5775 10.7197C57.7727 9.84792 56.6439 9.41203 55.1909 9.41203C54.0509 9.41203 53.045 9.68027 52.1733 10.2167C51.3238 10.7532 50.6532 11.5021 50.1615 12.4632C49.6921 13.4244 49.4574 14.5309 49.4574 15.7827V23.7963H46.6744Z" fill="black"/>
<path id="Vector_4" d="M34.6027 24.0981C32.8368 24.0981 31.2721 23.7404 29.9085 23.0251C28.5673 22.3098 27.5279 21.3039 26.7902 20.0075C26.0749 18.6886 25.7173 17.1798 25.7173 15.4809C25.7173 13.7597 26.0749 12.2509 26.7902 10.9544C27.5279 9.65792 28.5673 8.65203 29.9085 7.93672C31.2497 7.22142 32.8144 6.86377 34.6027 6.86377C36.4133 6.86377 37.978 7.22142 39.2969 7.93672C40.6381 8.65203 41.6663 9.65792 42.3816 10.9544C43.1193 12.2509 43.4881 13.7597 43.4881 15.4809C43.4881 17.1798 43.1193 18.6886 42.3816 20.0075C41.6663 21.3039 40.6381 22.3098 39.2969 23.0251C37.9557 23.7404 36.3909 24.0981 34.6027 24.0981ZM34.6027 21.7175C36.5027 21.7175 37.9892 21.1586 39.0621 20.041C40.1574 18.9233 40.7051 17.4033 40.7051 15.4809C40.7051 13.5586 40.1574 12.0385 39.0621 10.9209C37.9892 9.78086 36.5027 9.21086 34.6027 9.21086C32.7474 9.21086 31.272 9.78086 30.1767 10.9209C29.0814 12.0385 28.5338 13.5586 28.5338 15.4809C28.5338 17.4033 29.0703 18.9233 30.1432 20.041C31.2385 21.1586 32.725 21.7175 34.6027 21.7175Z" fill="black"/>
<path id="Vector_5" d="M0.209229 23.7957V0.458984H3.12633L10.9052 18.1627C11.3076 19.1016 11.5982 20.0627 11.777 21.0463L11.8105 21.2475H11.9782L12.0117 21.0463C12.1459 20.0851 12.4141 19.1127 12.8164 18.1292L20.3271 0.458984H23.2107V23.7957H20.4277V9.17674C20.4277 8.14849 20.4948 7.1873 20.6289 6.29317L20.6624 5.92434L20.4948 5.89081C20.4724 6.02493 20.3718 6.40494 20.193 7.03083C20.0142 7.63436 19.7795 8.29378 19.4889 9.00909L13.42 23.3598H10.2682L3.9981 9.00909C3.75222 8.4279 3.53986 7.89143 3.36103 7.39966C3.20456 6.88553 3.08162 6.46082 2.99221 6.12552C2.96985 6.01376 2.94749 5.93552 2.92514 5.89081L2.75749 5.92434C2.93632 6.9973 3.02574 8.08143 3.02574 9.17674V23.7957H0.209229Z" fill="black"/>
</g>
</svg>
