<svg width="339" height="42" viewBox="0 0 339 42" fill="none" xmlns="http://www.w3.org/2000/svg">
<path d="M29.9746 23.3529C29.9746 16.4008 35.3816 12.6157 42.9907 12.6157C50.6375 12.6157 56.0061 16.4008 56.0061 23.3529C56.0061 30.3435 50.5991 34.1285 42.9907 34.1285C35.4205 34.1285 29.9746 30.3435 29.9746 23.3529ZM42.9133 28.7599C46.5821 28.7599 49.0929 26.713 49.0929 23.3529C49.0929 19.9928 46.5821 17.946 42.9133 17.946C39.3596 17.946 36.8878 19.9928 36.8878 23.3529C36.8878 26.713 39.3596 28.7599 42.9133 28.7599Z" fill="black"/>
<path d="M56.582 13.3877H63.9202L67.8599 27.2147H68.2075L72.1466 13.3877H80.644L84.5831 27.2147H84.9307L88.8704 13.3877H96.2086L89.7587 33.3553H80.2963L76.5886 19.4126H76.202L72.4943 33.3553H63.0319L56.582 13.3877Z" fill="black"/>
<path d="M96.791 23.3906C96.791 16.4001 101.812 12.5767 109.421 12.5767C116.45 12.5767 122.089 15.5891 122.089 23.1592V24.7428H103.743C104.206 27.5233 106.756 28.7982 110 28.7982C112.472 28.7982 113.82 28.4938 115.255 27.1614L122.128 27.0983C120.235 32.3512 115.639 34.1278 110.039 34.1278C102.044 34.1278 96.791 30.3427 96.791 23.3906ZM114.905 20.9723C114.905 19.3429 113.13 17.3273 109.845 17.3273C106.188 17.3273 104.526 18.9518 104.168 20.9723H114.905Z" fill="black"/>
<path d="M163.059 5.62451V22.7726C163.059 26.7123 160.51 27.8709 156.339 27.8709C152.168 27.8709 149.619 26.7123 149.619 22.7726V5.62451H142.357V23.6999C142.357 31.231 148.113 34.1278 156.339 34.1278C164.565 34.1278 170.32 31.231 170.32 23.6999V5.62451H163.059Z" fill="black"/>
<path d="M198.976 11.2496C202.083 11.2496 204.601 8.73132 204.601 5.62482C204.601 2.51833 202.083 0 198.976 0C195.87 0 193.352 2.51833 193.352 5.62482C193.352 8.73132 195.87 11.2496 198.976 11.2496Z" fill="#35ADE1"/>
<path d="M133.029 14.4794L129.943 16.8941V12.5903L124.832 12.5767V33.3552H131.552V26.9053C131.552 21.3054 134.14 18.2539 139.199 18.2539V12.615L138.603 12.6134C137.155 12.6096 135.731 12.9406 134.44 13.5747C133.938 13.8216 133.47 14.1344 133.029 14.4794Z" fill="black"/>
<path d="M187.622 12.5767H187.252C184.806 12.5767 182.435 13.4294 180.549 14.9883L180.052 15.3991V12.5767H173.68V41.08H180.631V31.3857C181.983 33.0465 184.609 34.0895 187.622 34.0895C193.918 34.0895 198.977 30.3044 198.977 23.2749C198.977 16.3617 193.918 12.5767 187.622 12.5767ZM186.039 28.4505C182.369 28.4505 180.052 26.442 180.052 23.2749C180.052 20.1852 182.369 18.2156 186.039 18.2156C189.708 18.2156 192.025 20.1852 192.025 23.2749C192.025 26.442 189.708 28.4505 186.039 28.4505Z" fill="black"/>
<path d="M16.8396 5.62451H0V33.3552H8.22655V23.5676C8.22655 22.8396 7.88568 22.1537 7.30549 21.7141L4.80631 23.9702H17.0325C25.6451 23.9702 28.6964 20.0695 28.6964 14.8938C28.6964 9.75721 25.7224 5.62451 16.8396 5.62451ZM16.9169 18.0226H7.26091V11.5727H16.7233C17.9981 11.5727 21.4357 11.5727 21.4357 14.8555C21.4357 16.825 20.1996 18.0226 16.9169 18.0226Z" fill="black"/>
<path d="M321.729 41.0791C320.479 41.0791 319.376 40.893 318.418 40.5208V37.6492C318.791 37.7822 319.256 37.8885 319.814 37.9683C320.373 38.0746 320.891 38.1278 321.37 38.1278C322.274 38.1278 323.058 37.8885 323.723 37.4099C324.387 36.9313 324.906 36.2002 325.278 35.2164L326.355 32.9431L316.783 13.6001H320.452L326.913 26.6417C327.286 27.4659 327.551 28.2237 327.711 28.915C327.871 29.6063 327.95 30.0716 327.95 30.3108H328.19L328.229 30.0317C328.389 28.9947 328.735 27.8647 329.266 26.6417L335.329 13.6001H338.998L327.871 36.8117C327.179 38.274 326.328 39.3509 325.318 40.0422C324.308 40.7335 323.111 41.0791 321.729 41.0791Z" fill="black"/>
<path d="M295.672 23.4915C295.672 21.3378 296.111 19.4899 296.988 17.9478C297.892 16.4057 299.142 15.2358 300.737 14.4382C302.332 13.6405 304.167 13.2417 306.241 13.2417C308.368 13.2417 310.189 13.6671 311.705 14.5179C313.247 15.3422 314.403 16.4988 315.174 17.9877C315.972 19.4501 316.371 21.1251 316.371 23.0129C316.371 23.4117 316.344 23.9302 316.291 24.5683H297.427L299.142 23.2123C298.956 25.7382 299.474 27.6659 300.697 28.9953C301.947 30.3247 303.768 30.9894 306.161 30.9894C307.863 30.9894 309.285 30.657 310.428 29.9923C311.572 29.301 312.383 28.3571 312.861 27.1607H316.291C315.68 29.2611 314.51 30.883 312.781 32.0263C311.053 33.1696 308.873 33.7413 306.241 33.7413C302.97 33.7413 300.391 32.8373 298.504 31.0293C296.616 29.2213 295.672 26.7087 295.672 23.4915ZM299.062 23.3718L297.427 22.1754H313.101C313.101 20.261 312.502 18.7455 311.306 17.6288C310.109 16.4855 308.421 15.9138 306.241 15.9138C303.928 15.9138 302.133 16.5785 300.857 17.9079C299.58 19.2374 298.982 21.0587 299.062 23.3718Z" fill="black"/>
<path d="M273.189 33.3823V13.6006H276.5L275.901 18.8651H276.181C276.819 17.2698 277.856 15.9404 279.291 14.8769C280.754 13.7868 282.495 13.2417 284.516 13.2417C286.749 13.2417 288.571 13.9596 289.98 15.3954C291.389 16.8045 292.094 18.8518 292.094 21.5372V33.3823H288.783V22.1754C288.783 20.2876 288.305 18.8385 287.348 17.8282C286.391 16.7912 285.048 16.2728 283.32 16.2728C281.964 16.2728 280.767 16.5918 279.73 17.2299C278.72 17.8681 277.922 18.7588 277.337 19.9021C276.779 21.0454 276.5 22.3615 276.5 23.8504V33.3823H273.189Z" fill="black"/>
<path d="M258.833 33.7413C256.732 33.7413 254.871 33.3159 253.249 32.465C251.654 31.6142 250.417 30.4177 249.54 28.8756C248.689 27.3069 248.264 25.5122 248.264 23.4915C248.264 21.4442 248.689 19.6495 249.54 18.1074C250.417 16.5652 251.654 15.3688 253.249 14.5179C254.844 13.6671 256.705 13.2417 258.833 13.2417C260.986 13.2417 262.847 13.6671 264.416 14.5179C266.011 15.3688 267.234 16.5652 268.085 18.1074C268.963 19.6495 269.401 21.4442 269.401 23.4915C269.401 25.5122 268.963 27.3069 268.085 28.8756C267.234 30.4177 266.011 31.6142 264.416 32.465C262.821 33.3159 260.96 33.7413 258.833 33.7413ZM258.833 30.9096C261.093 30.9096 262.861 30.2449 264.137 28.9155C265.44 27.5861 266.091 25.7781 266.091 23.4915C266.091 21.2049 265.44 19.3969 264.137 18.0675C262.861 16.7115 261.093 16.0335 258.833 16.0335C256.626 16.0335 254.871 16.7115 253.568 18.0675C252.265 19.3969 251.614 21.2049 251.614 23.4915C251.614 25.7781 252.252 27.5861 253.528 28.9155C254.831 30.2449 256.599 30.9096 258.833 30.9096Z" fill="black"/>
<path d="M217.922 33.3822V5.62402H221.392L230.644 26.682C231.123 27.7987 231.469 28.942 231.681 30.1118L231.721 30.3511H231.921L231.961 30.1118C232.12 28.9686 232.439 27.812 232.918 26.6421L241.851 5.62402H245.281V33.3822H241.971V15.9935C241.971 14.7704 242.051 13.6271 242.21 12.5636L242.25 12.1249L242.051 12.085C242.024 12.2445 241.905 12.6965 241.692 13.441C241.479 14.1589 241.2 14.9432 240.854 15.794L233.636 32.8637H229.887L222.429 15.794C222.136 15.1028 221.884 14.4646 221.671 13.8797C221.485 13.2682 221.338 12.763 221.232 12.3642C221.206 12.2312 221.179 12.1382 221.152 12.085L220.953 12.1249C221.166 13.4011 221.272 14.6906 221.272 15.9935V33.3822H217.922Z" fill="black"/>
</svg>
