<svg width="365" height="96" viewBox="0 0 365 96" fill="none" xmlns="http://www.w3.org/2000/svg">
<path d="M105.201 70.3641C105.201 64.5193 109.747 61.3372 116.144 61.3372C122.573 61.3372 127.086 64.5193 127.086 70.3641C127.086 76.2411 122.54 79.4233 116.144 79.4233C109.779 79.4233 105.201 76.2411 105.201 70.3641ZM116.079 74.9098C119.163 74.9098 121.274 73.189 121.274 70.3641C121.274 67.5392 119.163 65.8184 116.079 65.8184C113.091 65.8184 111.013 67.5392 111.013 70.3641C111.013 73.189 113.091 74.9098 116.079 74.9098Z" fill="black"/>
<path d="M127.569 61.9868H133.739L137.051 73.6114H137.343L140.655 61.9868H147.799L151.11 73.6114H151.403L154.715 61.9868H160.884L155.462 78.7739H147.506L144.389 67.052H144.064L140.947 78.7739H132.992L127.569 61.9868Z" fill="black"/>
<path d="M161.373 70.3966C161.373 64.5196 165.594 61.3052 171.991 61.3052C177.9 61.3052 182.641 63.8378 182.641 70.2021V71.5334H167.218C167.607 73.871 169.75 74.9429 172.478 74.9429C174.556 74.9429 175.69 74.687 176.896 73.5668L182.674 73.5137C181.083 77.93 177.219 79.4235 172.511 79.4235C165.789 79.4235 161.373 76.2414 161.373 70.3966ZM176.602 68.3635C176.602 66.9936 175.109 65.2991 172.348 65.2991C169.273 65.2991 167.876 66.6649 167.575 68.3635H176.602Z" fill="black"/>
<path d="M217.087 55.4597V69.8764C217.087 73.1886 214.944 74.1626 211.438 74.1626C207.931 74.1626 205.788 73.1886 205.788 69.8764V55.4597H199.683V70.656C199.683 76.9875 204.521 79.4229 211.438 79.4229C218.354 79.4229 223.192 76.9875 223.192 70.656V55.4597H217.087Z" fill="black"/>
<path d="M247.283 60.1892C249.894 60.1892 252.011 58.072 252.011 55.4603C252.011 52.8486 249.894 50.7314 247.283 50.7314C244.671 50.7314 242.554 52.8486 242.554 55.4603C242.554 58.072 244.671 60.1892 247.283 60.1892Z" fill="#35ADE1"/>
<path d="M191.839 62.9048L189.245 64.9349V61.3166L184.948 61.3052V78.774H190.598V73.3515C190.598 68.6436 192.773 66.0782 197.027 66.0782V61.3374L196.526 61.3361C195.309 61.3328 194.111 61.6111 193.026 62.1443C192.603 62.3518 192.21 62.6148 191.839 62.9048Z" fill="black"/>
<path d="M237.738 61.3052H237.427C235.37 61.3052 233.377 62.0221 231.791 63.3327L231.374 63.678V61.3052H226.016V85.2684H231.86V77.1182C232.997 78.5145 235.205 79.3914 237.738 79.3914C243.03 79.3914 247.284 76.2092 247.284 70.2994C247.284 64.4874 243.03 61.3052 237.738 61.3052ZM236.407 74.6506C233.322 74.6506 231.374 72.962 231.374 70.2994C231.374 67.7018 233.322 66.0459 236.407 66.0459C239.491 66.0459 241.439 67.7018 241.439 70.2994C241.439 72.962 239.491 74.6506 236.407 74.6506Z" fill="black"/>
<path d="M94.1573 55.4597H80V78.7733H86.9162V70.5448C86.9162 69.9328 86.6296 69.3561 86.1418 68.9865L84.0407 70.8832H94.3195C101.56 70.8832 104.125 67.6038 104.125 63.2526C104.125 58.9341 101.625 55.4597 94.1573 55.4597ZM94.2223 65.883H86.1044V60.4605H94.0595C95.1313 60.4605 98.0213 60.4605 98.0213 63.2204C98.0213 64.8762 96.9821 65.883 94.2223 65.883Z" fill="black"/>
<path d="M350.481 85.2671C349.431 85.2671 348.503 85.1106 347.698 84.7977V82.3835C348.011 82.4953 348.402 82.5847 348.872 82.6518C349.341 82.7412 349.777 82.7859 350.179 82.7859C350.939 82.7859 351.599 82.5847 352.158 82.1823C352.717 81.78 353.152 81.1653 353.465 80.3382L354.371 78.427L346.324 62.165H349.408L354.84 73.1293C355.153 73.8222 355.377 74.4593 355.511 75.0405C355.645 75.6217 355.712 76.0129 355.712 76.214H355.913L355.947 75.9793C356.081 75.1076 356.371 74.1575 356.818 73.1293L361.915 62.165H365L355.645 81.6794C355.064 82.9088 354.348 83.8141 353.499 84.3953C352.65 84.9765 351.644 85.2671 350.481 85.2671Z" fill="black"/>
<path d="M328.576 70.4809C328.576 68.6703 328.945 67.1168 329.682 65.8203C330.442 64.5238 331.493 63.5403 332.834 62.8697C334.175 62.1991 335.718 61.8638 337.461 61.8638C339.249 61.8638 340.781 62.2214 342.055 62.9367C343.351 63.6297 344.324 64.602 344.972 65.8538C345.642 67.0832 345.978 68.4915 345.978 70.0786C345.978 70.4139 345.955 70.8498 345.911 71.3862H330.051L331.493 70.2462C331.336 72.3698 331.772 73.9904 332.8 75.108C333.851 76.2257 335.382 76.7845 337.394 76.7845C338.825 76.7845 340.021 76.5051 340.982 75.9463C341.943 75.3651 342.625 74.5716 343.027 73.5657H345.911C345.397 75.3316 344.413 76.6951 342.96 77.6563C341.507 78.6175 339.674 79.0981 337.461 79.0981C334.712 79.0981 332.543 78.3381 330.956 76.8181C329.369 75.298 328.576 73.1857 328.576 70.4809ZM331.426 70.3803L330.051 69.3744H343.228C343.228 67.765 342.725 66.4909 341.719 65.552C340.714 64.5909 339.294 64.1103 337.461 64.1103C335.516 64.1103 334.008 64.6691 332.935 65.7868C331.862 66.9044 331.359 68.4356 331.426 70.3803Z" fill="black"/>
<path d="M309.674 78.7963V62.1655H312.457L311.954 66.5915H312.189C312.726 65.2503 313.597 64.1326 314.804 63.2385C316.034 62.322 317.498 61.8638 319.197 61.8638C321.075 61.8638 322.606 62.4673 323.79 63.6744C324.975 64.8591 325.567 66.5803 325.567 68.838V78.7963H322.785V69.3744C322.785 67.7874 322.382 66.5691 321.577 65.7197C320.773 64.8479 319.644 64.412 318.191 64.412C317.051 64.412 316.045 64.6803 315.173 65.2167C314.324 65.7532 313.653 66.5021 313.161 67.4632C312.692 68.4244 312.457 69.5309 312.457 70.7827V78.7963H309.674Z" fill="black"/>
<path d="M297.603 79.0981C295.837 79.0981 294.272 78.7404 292.909 78.0251C291.567 77.3098 290.528 76.3039 289.79 75.0075C289.075 73.6886 288.717 72.1798 288.717 70.4809C288.717 68.7597 289.075 67.2509 289.79 65.9544C290.528 64.6579 291.567 63.652 292.909 62.9367C294.25 62.2214 295.814 61.8638 297.603 61.8638C299.413 61.8638 300.978 62.2214 302.297 62.9367C303.638 63.652 304.666 64.6579 305.382 65.9544C306.119 67.2509 306.488 68.7597 306.488 70.4809C306.488 72.1798 306.119 73.6886 305.382 75.0075C304.666 76.3039 303.638 77.3098 302.297 78.0251C300.956 78.7404 299.391 79.0981 297.603 79.0981ZM297.603 76.7175C299.503 76.7175 300.989 76.1586 302.062 75.041C303.157 73.9233 303.705 72.4033 303.705 70.4809C303.705 68.5586 303.157 67.0385 302.062 65.9209C300.989 64.7809 299.503 64.2109 297.603 64.2109C295.747 64.2109 294.272 64.7809 293.177 65.9209C292.081 67.0385 291.534 68.5586 291.534 70.4809C291.534 72.4033 292.07 73.9233 293.143 75.041C294.239 76.1586 295.725 76.7175 297.603 76.7175Z" fill="black"/>
<path d="M263.209 78.7957V55.459H266.126L273.905 73.1627C274.308 74.1016 274.598 75.0627 274.777 76.0463L274.811 76.2475H274.978L275.012 76.0463C275.146 75.0851 275.414 74.1127 275.816 73.1292L283.327 55.459H286.211V78.7957H283.428V64.1767C283.428 63.1485 283.495 62.1873 283.629 61.2932L283.662 60.9243L283.495 60.8908C283.472 61.0249 283.372 61.4049 283.193 62.0308C283.014 62.6344 282.779 63.2938 282.489 64.0091L276.42 78.3598H273.268L266.998 64.0091C266.752 63.4279 266.54 62.8914 266.361 62.3997C266.205 61.8855 266.082 61.4608 265.992 61.1255C265.97 61.0138 265.947 60.9355 265.925 60.8908L265.757 60.9243C265.936 61.9973 266.026 63.0814 266.026 64.1767V78.7957H263.209Z" fill="black"/>
</svg>
